<?xml version="1.0" encoding="utf-8"?>
<!-- Generator: Adobe Illustrator 19.2.1, SVG Export Plug-In . SVG Version: 6.00 Build 0)  -->
<svg version="1.2" baseProfile="tiny" id="Layer_1" xmlns="http://www.w3.org/2000/svg" xmlns:xlink="http://www.w3.org/1999/xlink"
	 x="0px" y="0px" width="517px" height="209.7px" viewBox="0 0 517 209.7" xml:space="preserve">
<g>
	<g>
		<path fill="#FFFFFF" d="M149.5,113.5l17.8-20.2v74.9h-14.8c-1.6,0-2.9-1.3-2.9-2.9V113.5z"/>
		<path fill="#FFFFFF" d="M65.5,93.8l17.1,19.6v51.8c0,1.6-1.3,2.9-2.9,2.9H65.5V93.8z"/>
		<path fill="#FFFFFF" d="M124.5,129h-18.7c-1,0-1.9-0.4-2.6-1.1l-15.4-17.2l0,0l-23-26.4c-0.8-0.9-2-1.2-3.2-0.8
			c-1.1,0.4-1.9,1.5-1.9,2.7v82H44.4c-1.6,0-2.9-1.3-2.9-2.9V44.5c0-1.6,1.3-2.9,2.9-2.9h2.9L124.5,129z"/>
		<path fill="#FFFFFF" d="M129.7,95.5l-9.9-11.8l36.1-41c0.7-0.7,1.6-1.2,2.6-1.2h18.2L129.7,95.5z"/>
		<path fill="#FFFFFF" d="M190.7,44.5v120.8c0,1.6-1.3,2.9-2.9,2.9H173V85.7c0-1.2-0.7-2.3-1.9-2.7c-1.1-0.4-2.4-0.1-3.2,0.8
			l-19.9,22.6L130,126.5L55,41.5h18.3c1,0,1.9,0.4,2.6,1.2l40,45.4l0,0l11.5,13.7c0.5,0.6,1.3,1,2.2,1h0c0.8,0,1.6-0.4,2.2-1
			l52.3-60.2l-0.1-0.1h3.7C189.4,41.5,190.7,42.8,190.7,44.5z"/>
		<path fill="#FFFFFF" d="M310.3,121.8l8,13.3c-8.1,8-21.1,16.5-37.7,19.7c-14.7,2.9-36.7,0.3-52.9-11.9
			c-11.8-8.9-18.5-21.4-19.8-36.9l0,0c-0.9-29.1,17.4-54.2,42.8-63.9c-2,1.2-3.8,2.5-5.7,3.9c-15.8,12.3-24.4,31.8-22.5,51
			c1.7,17,12,30.7,27.5,36.6c5.4,2.1,11.2,3.1,17,3.1c12.8,0,26.1-5,37.9-14.4c0.3-0.2,1.7-1.4,1.7-1.4
			C307.7,120.1,309.4,120.4,310.3,121.8z"/>
		<path fill="#FFFFFF" d="M314.8,78.2l-4.8,8.1c-0.7,1.2-2.3,1.5-3.4,0.5c-7.5-6.7-18.7-11-29.3-11.1c-13.7,0-25.7,10.6-27.4,24.4
			c-0.2,1.7-0.3,3.3-0.2,5c-0.8-2.5-1.2-5.1-1.3-7.8c-0.2-12,7.4-24.4,18.1-29.5C281.6,60.7,298.5,64.4,314.8,78.2z"/>
		<path fill="#FFFFFF" d="M325.8,59.6l-8,13.5c-17.9-14.8-36.7-18.7-53.6-10.6c-12.9,6.1-21.7,20.4-21.4,34.9
			c0.1,7.9,3.2,22.2,21.9,31.1c0,0,0,0,0,0c1.9,1,3.9,1.8,6.1,2.3c-6.5,0.6-12.9-0.2-18.8-2.5c-13.4-5.1-22.3-17-23.8-31.8
			c-1.7-17.2,6.1-34.8,20.3-45.9c14.8-11.5,34.2-14.4,53.7-8.3c0,0,0,0,0,0c9.1,3.2,16.8,8,23.1,13.9
			C326.3,57.1,326.4,58.5,325.8,59.6z"/>
		<path fill="#FFFFFF" d="M325.7,147.5c0.7,1.1,0.5,2.6-0.4,3.4c-11.7,11.1-27.9,18-46.8,18.9c-19.5,1-38.5-7.1-51.9-20.7
			c13,8.8,28.9,12.4,42.4,12.4c4.6,0,8.8-0.4,12.7-1.2c16.6-3.2,30.4-11.4,39.7-20.2L325.7,147.5z"/>
		<path fill="#FFFFFF" d="M384.4,115.7l0.1,49.8c0,1.5-1.2,2.7-2.7,2.7l-15.1,0V94.1L384.4,115.7z"/>
		<path fill="#FFFFFF" d="M452.2,122.1l-17.7-21.9v-56c0-1.5,1.2-2.7,2.7-2.7h15V122.1z"/>
		<path fill="#FFFFFF" d="M350.3,41.5l104.6,126.8h-18.8c-0.9,0-1.7-0.4-2.2-1.1L392.1,116l0,0l-26-31.7c-0.8-0.9-2-1.3-3.2-0.9
			c-1.1,0.4-1.9,1.5-1.9,2.7v82.2l-14.9,0c-1.5,0-2.7-1.2-2.7-2.7V44.2c0-1.5,1.2-2.7,2.7-2.7H350.3z"/>
		<path fill="#FFFFFF" d="M475.5,44.2v121.4c0,1.5-1.2,2.7-2.7,2.7h-10.5L357.8,41.5h19.5c0.9,0,1.7,0.4,2.2,1l55.1,66.8v0
			l18.3,22.7c0.6,0.7,1.4,1.1,2.2,1.1c0.3,0,0.6-0.1,1-0.2c1.1-0.4,1.9-1.5,1.9-2.7V41.5h14.9C474.3,41.5,475.5,42.7,475.5,44.2z"/>
	</g>
	<g>
		<path fill="#FFFFFF" d="M490.2,46.7c0-1-0.6-2.1-2-2.1h-2.5v6.5h1v-2.4h0.7l1.6,2.4h1.2l-1.7-2.4
			C489.7,48.6,490.2,47.7,490.2,46.7z M486.6,47.9v-2.3h1.5c0.7,0,1,0.6,1,1.1c0,0.6-0.3,1.1-1,1.1H486.6z"/>
		<path fill="#FFFFFF" d="M487.6,41.5c-3.5,0-6.3,2.8-6.3,6.3c0,3.5,2.8,6.3,6.3,6.3c3.5,0,6.3-2.8,6.3-6.3
			C493.9,44.3,491.1,41.5,487.6,41.5z M487.6,53.3c-3,0-5.5-2.5-5.5-5.5c0-3,2.5-5.5,5.5-5.5c3,0,5.5,2.5,5.5,5.5
			C493.1,50.8,490.6,53.3,487.6,53.3z"/>
	</g>
</g>
</svg>
