<?xml version="1.0" standalone="no"?>
<!DOCTYPE svg PUBLIC "-//W3C//DTD SVG 20010904//EN"
 "http://www.w3.org/TR/2001/REC-SVG-20010904/DTD/svg10.dtd">
<svg version="1.0" xmlns="http://www.w3.org/2000/svg"
 width="700.000000pt" height="700.000000pt" viewBox="0 0 700.000000 700.000000"
 preserveAspectRatio="xMidYMid meet">
<metadata>
Created by potrace 1.11, written by Peter Selinger 2001-2013
</metadata>
<g transform="translate(0.000000,700.000000) scale(0.100000,-0.100000)"
fill="#000000" stroke="none">
<path d="M1000 6140 l-65 -5 45 -50 c25 -27 47 -52 50 -55 4 -4 93 -105 175
-199 17 -19 37 -42 45 -51 8 -8 60 -67 115 -130 100 -116 139 -160 185 -210
14 -15 50 -56 80 -90 30 -35 59 -68 65 -74 5 -6 59 -67 120 -136 60 -69 112
-127 115 -130 3 -3 30 -34 60 -69 30 -36 66 -77 80 -91 14 -15 39 -42 55 -62
17 -19 59 -68 95 -109 36 -40 103 -116 150 -169 47 -53 114 -129 150 -170 66
-75 104 -118 221 -251 125 -142 322 -364 348 -394 62 -72 166 -190 171 -195 3
-3 53 -59 110 -125 58 -66 114 -129 125 -141 11 -11 45 -49 75 -84 30 -35 59
-68 65 -74 5 -6 57 -65 115 -131 115 -132 129 -147 251 -284 l83 -93 45 49
c56 60 110 119 221 243 47 52 90 100 95 106 6 6 42 46 80 89 39 43 75 83 80
89 18 19 189 209 221 245 16 18 38 43 49 55 11 12 49 56 85 96 36 41 85 97
110 125 25 28 72 82 105 119 54 62 115 131 170 192 11 12 31 35 44 50 123 145
317 356 333 365 51 27 120 6 155 -48 17 -26 18 -123 19 -1773 1 -960 2 -1747
3 -1751 1 -3 144 -5 319 -6 348 -1 359 0 402 58 l22 31 0 2570 c0 2444 -1
2571 -17 2603 -29 52 -60 65 -166 66 -83 1 -95 -1 -110 -20 -9 -11 -86 -100
-172 -198 -85 -98 -250 -288 -367 -423 -117 -135 -227 -261 -244 -280 -17 -19
-74 -84 -126 -145 -52 -60 -97 -112 -100 -115 -3 -3 -93 -106 -200 -230 -107
-124 -199 -230 -205 -236 -10 -11 -30 -33 -225 -259 -62 -71 -126 -146 -144
-165 -17 -19 -116 -132 -218 -251 -103 -119 -199 -224 -213 -233 -27 -18 -77
-23 -112 -12 -12 4 -53 44 -90 89 -37 45 -70 84 -73 87 -5 5 -148 174 -181
215 -10 11 -34 40 -55 65 -22 25 -57 68 -79 94 -22 27 -45 54 -50 60 -6 6 -78
88 -160 181 -82 94 -152 172 -155 175 -5 4 -142 160 -240 273 -14 16 -36 41
-50 56 -14 15 -52 58 -85 96 -33 37 -67 76 -75 85 -8 9 -42 48 -75 85 -33 37
-100 113 -149 169 -102 115 -174 198 -214 241 -15 17 -124 141 -242 275 -254
289 -273 308 -314 315 -41 7 -652 11 -736 5z"/>
<path d="M5310 6140 c-41 -3 -84 -10 -95 -17 -12 -6 -48 -42 -80 -80 -33 -37
-82 -92 -110 -123 -27 -30 -75 -84 -105 -119 -30 -35 -59 -69 -65 -75 -5 -6
-48 -54 -94 -106 -46 -52 -98 -111 -115 -130 -17 -19 -49 -55 -70 -80 -77 -90
-151 -174 -171 -194 -11 -12 -33 -37 -49 -56 -16 -19 -55 -64 -87 -100 -74
-84 -100 -113 -157 -180 -26 -30 -56 -64 -67 -75 -12 -11 -63 -69 -115 -130
-52 -60 -102 -116 -110 -125 -8 -9 -37 -42 -65 -74 -27 -32 -60 -70 -73 -83
-20 -22 -21 -27 -9 -42 7 -9 63 -74 123 -146 60 -71 143 -170 184 -220 41 -49
80 -95 86 -101 7 -9 32 13 90 79 91 104 332 382 384 443 88 102 495 570 500
574 3 3 32 36 65 75 33 38 65 75 70 81 14 15 121 137 170 194 45 52 77 89 290
335 82 94 174 199 205 235 31 36 89 102 128 147 40 45 72 84 72 87 0 7 -635
12 -730 6z"/>
<path d="M427 6121 c-15 -10 -36 -29 -45 -42 -16 -22 -17 -195 -17 -2601 l0
-2577 21 -28 c41 -56 50 -57 404 -58 179 -1 330 0 335 2 7 2 10 589 9 1736 -1
1928 -6 1779 68 1816 32 15 45 17 78 9 40 -11 56 -25 170 -157 30 -36 60 -69
65 -75 6 -6 35 -40 65 -76 30 -36 60 -69 66 -75 6 -5 56 -62 110 -125 54 -63
101 -117 104 -120 3 -3 80 -90 170 -195 164 -190 184 -213 237 -271 15 -17 51
-58 79 -90 29 -33 62 -71 75 -85 13 -14 56 -60 94 -103 39 -43 79 -88 90 -100
11 -12 51 -57 89 -99 38 -43 78 -88 90 -100 12 -13 55 -61 96 -107 100 -111
109 -119 150 -131 22 -6 181 -9 428 -7 l394 3 -24 26 c-12 14 -48 54 -78 90
-30 35 -60 69 -66 74 -5 6 -57 64 -115 130 -57 66 -106 122 -109 125 -8 7
-233 262 -300 340 -30 35 -60 68 -66 74 -5 6 -59 67 -119 136 -60 69 -124 141
-141 160 -17 19 -55 62 -85 96 -30 33 -81 91 -115 130 -33 38 -118 134 -189
214 -162 184 -222 252 -325 370 -46 52 -95 109 -111 125 -24 26 -227 257 -408
464 -31 35 -63 71 -71 80 -9 9 -45 50 -80 91 -36 41 -67 77 -70 80 -3 3 -43
48 -89 100 -46 52 -98 111 -115 130 -17 19 -63 71 -101 115 -39 44 -72 82 -75
85 -3 3 -70 79 -150 170 -80 91 -163 184 -185 208 -22 24 -41 48 -43 53 -2 5
-40 9 -85 9 -63 0 -89 -4 -110 -19z"/>
<path d="M5553 3848 c-54 -62 -105 -120 -113 -128 -8 -9 -24 -27 -35 -41 -19
-22 -154 -175 -229 -259 -17 -19 -62 -71 -101 -115 -38 -44 -72 -82 -75 -85
-3 -3 -24 -27 -48 -54 l-42 -49 0 -1104 c0 -1223 -5 -1138 64 -1179 28 -17 58
-18 357 -19 l325 0 0 1572 c0 865 -1 1573 -2 1573 -1 0 -47 -50 -101 -112z"/>
<path d="M1373 2380 l0 -1560 21 -5 c12 -2 149 -4 306 -3 315 1 336 4 371 62
18 30 19 73 19 1139 l0 1108 -102 117 c-57 64 -114 130 -128 146 -14 16 -30
34 -35 40 -6 6 -71 81 -145 166 -74 85 -137 157 -140 160 -3 3 -34 39 -70 80
-36 41 -72 83 -81 93 -14 16 -16 -115 -16 -1543z"/>
</g>
</svg>
